<?xml version="1.0" encoding="UTF-8" standalone="no"?>
<svg
   version="1.1"
   width="1024"
   height="1024"
   id="svg58"
   sodipodi:docname="logo (1).svg"
   inkscape:version="1.3.2 (091e20e, 2023-11-25)"
   xmlns:inkscape="http://www.inkscape.org/namespaces/inkscape"
   xmlns:sodipodi="http://sodipodi.sourceforge.net/DTD/sodipodi-0.dtd"
   xmlns="http://www.w3.org/2000/svg"
   xmlns:svg="http://www.w3.org/2000/svg">
  <defs
     id="defs58" />
  <sodipodi:namedview
     id="namedview58"
     pagecolor="#ffffff"
     bordercolor="#000000"
     borderopacity="0.25"
     inkscape:showpageshadow="2"
     inkscape:pageopacity="0.0"
     inkscape:pagecheckerboard="0"
     inkscape:deskcolor="#d1d1d1"
     inkscape:zoom="0.23046875"
     inkscape:cx="509.83051"
     inkscape:cy="512"
     inkscape:window-width="1312"
     inkscape:window-height="449"
     inkscape:window-x="0"
     inkscape:window-y="25"
     inkscape:window-maximized="0"
     inkscape:current-layer="svg58" />
  <path
     d="M0 0 C2.41404115 0.00239195 4.82808419 0.00328816 7.24212646 0.0027771 C12.27823717 0.00588662 17.3140595 0.02230376 22.35009766 0.04931641 C28.74518223 0.08321889 35.13995035 0.09094559 41.53511429 0.08942604 C46.51484087 0.089975 51.49450086 0.10102677 56.47420502 0.11542892 C58.82926685 0.12171059 61.18433609 0.12571511 63.53940582 0.12721634 C82.26603608 0.15222529 100.90699358 0.81258911 119.296875 4.6484375 C120.33602051 4.86274414 121.37516602 5.07705078 122.44580078 5.29785156 C157.36831548 12.82650468 187.10564727 29.99310156 212.796875 54.4609375 C213.51488281 55.12609375 214.23289062 55.79125 214.97265625 56.4765625 C233.13281268 73.79967765 245.22128318 97.17332738 253.796875 120.4609375 C254.16554688 121.43417969 254.53421875 122.40742188 254.9140625 123.41015625 C268.54628674 162.98587701 263.97266776 210.11120546 245.81152344 247.39697266 C245.47668945 248.07808105 245.14185547 248.75918945 244.796875 249.4609375 C244.48524414 250.10724121 244.17361328 250.75354492 243.85253906 251.41943359 C235.51863112 268.55024437 224.14666272 282.96894425 210.796875 296.4609375 C209.92518677 297.3578833 209.92518677 297.3578833 209.03588867 298.27294922 C195.35147327 312.22605491 178.37835194 322.23806464 160.796875 330.4609375 C159.10304688 331.26337891 159.10304688 331.26337891 157.375 332.08203125 C143.93547775 338.1550548 129.84120889 342.10059903 115.359375 344.7734375 C114.06580078 345.01247803 114.06580078 345.01247803 112.74609375 345.25634766 C102.59656618 347.00513594 92.43688199 347.50084672 82.15625 347.671875 C80.86786476 347.69349953 80.86786476 347.69349953 79.55345154 347.71556091 C75.99645821 347.77241745 72.43960582 347.82710344 68.88232422 347.86230469 C40.67032697 348.16359282 19.26292598 356.50726421 -5.77163696 368.80052185 C-11.47980786 371.60254234 -17.21226622 374.35166789 -22.953125 377.0859375 C-29.00686367 379.96923459 -35.05111057 382.86975306 -41.078125 385.80859375 C-42.22442383 386.36530762 -43.37072266 386.92202148 -44.55175781 387.49560547 C-46.77738466 388.57710804 -49.00079184 389.66319344 -51.22167969 390.75439453 C-52.22102539 391.2389209 -53.22037109 391.72344727 -54.25 392.22265625 C-55.13526367 392.65537842 -56.02052734 393.08810059 -56.93261719 393.53393555 C-59.203125 394.4609375 -59.203125 394.4609375 -62.203125 394.4609375 C-62.203125 311.6309375 -62.203125 228.8009375 -62.203125 143.4609375 C-41.083125 143.4609375 -19.963125 143.4609375 1.796875 143.4609375 C5.80403804 147.46810054 5.92208016 149.86282845 5.93731689 155.30145264 C5.94302704 156.52077988 5.94873718 157.74010712 5.95462036 158.99638367 C5.95586577 160.35012807 5.95699085 161.70387259 5.95800781 163.05761719 C5.96263695 164.48198068 5.96766174 165.90634293 5.97305298 167.33070374 C5.98618058 171.20537615 5.99262408 175.08003122 5.99706364 178.9547224 C5.99999728 181.38056609 6.00410292 183.80640508 6.00856781 186.2322464 C6.02225139 193.83604909 6.03191056 201.439841 6.0357697 209.04365516 C6.04023535 217.79312179 6.05770973 226.54243103 6.0867703 235.29184985 C6.10849035 242.06916197 6.11847966 248.84643017 6.11981082 255.62377667 C6.12085264 259.66353995 6.12662476 263.70315546 6.14463043 267.74288177 C6.16128766 271.55472865 6.16318255 275.3663196 6.15449142 279.17819023 C6.15337136 281.21852885 6.16695665 283.25885965 6.1812439 285.29914856 C6.07192906 309.89706213 -3.17612601 327.9365382 -17.203125 347.4609375 C-16.35492188 346.54054688 -15.50671875 345.62015625 -14.6328125 344.671875 C-7.88603688 337.3815525 -1.03534252 330.23573505 6.02685547 323.25048828 C9.54934773 319.75200619 12.87968333 316.16226209 16.10546875 312.38671875 C26.90245914 300.0936096 40.09309994 289.0204124 56.796875 286.4609375 C61.35550173 286.19360065 65.91122119 286.11398646 70.47613525 286.05529785 C106.53910087 285.53202146 138.08605389 275.80538177 163.796875 249.4609375 C171.25335493 241.49581525 176.79866996 233.07631849 181.796875 223.4609375 C182.50457031 222.14222656 182.50457031 222.14222656 183.2265625 220.796875 C195.25605857 196.6631655 196.76664551 164.79795472 188.5078125 139.40234375 C177.39565926 107.11384086 155.12306115 85.32771097 125.13476562 70.61865234 C109.68336579 63.238346 93.60614462 59.39480992 76.52319336 59.25561523 C75.75134705 59.24571564 74.97950073 59.23581604 74.18426514 59.22561646 C71.66844604 59.19438106 69.15260815 59.1693966 66.63671875 59.14453125 C64.87837777 59.1239288 63.12004137 59.10293154 61.36170959 59.08155823 C56.76034283 59.02667707 52.15893392 58.97711976 47.55749512 58.92871094 C42.02230528 58.8693549 36.48719153 58.80331597 30.95206451 58.73841095 C22.56704828 58.64082944 14.18198057 58.55168122 5.796875 58.4609375 C5.796875 80.2409375 5.796875 102.0209375 5.796875 124.4609375 C-27.119125 124.4609375 -27.119125 124.4609375 -36.203125 121.4609375 C-37.31300781 121.09742188 -38.42289063 120.73390625 -39.56640625 120.359375 C-56.48762991 114.30911048 -70.46654922 103.69410926 -78.73828125 87.4453125 C-84.9461265 73.32834662 -86.64400466 58.28523604 -81.45703125 43.51953125 C-77.55444217 34.00013171 -72.45990137 26.74198402 -65.203125 19.4609375 C-64.51476562 18.749375 -63.82640625 18.0378125 -63.1171875 17.3046875 C-45.70195238 0.47211824 -22.72522019 -0.15046641 0 0 Z "
     fill="#E11F2E"
     transform="translate(218.203125,301.5390625)"
     id="path2" />
  <path
     d="M0 0 C21.12 0 42.24 0 64 0 C68.00716304 4.00716304 68.12520516 6.40189095 68.14044189 11.84051514 C68.14615204 13.05984238 68.15186218 14.27916962 68.15774536 15.53544617 C68.15899077 16.88919057 68.16011585 18.24293509 68.16113281 19.59667969 C68.16576195 21.02104318 68.17078674 22.44540543 68.17617798 23.86976624 C68.18930558 27.74443865 68.19574908 31.61909372 68.20018864 35.4937849 C68.20312228 37.91962859 68.20722792 40.34546758 68.21169281 42.7713089 C68.22537639 50.37511159 68.23503556 57.9789035 68.2388947 65.58271766 C68.24336035 74.33218429 68.26083473 83.08149353 68.2898953 91.83091235 C68.31161535 98.60822447 68.32160466 105.38549267 68.32293582 112.16283917 C68.32397764 116.20260245 68.32974976 120.24221796 68.34775543 124.28194427 C68.36441266 128.09379115 68.36630755 131.9053821 68.35761642 135.71725273 C68.35649636 137.75759135 68.37008165 139.79792215 68.3843689 141.83821106 C68.23997645 174.32925317 51.40281647 198.98845566 29.0559845 221.18812561 C26.93820445 223.27645899 24.81351843 225.35755702 22.6875 227.4375 C20.53814778 229.55150183 18.39111207 231.66778624 16.2467804 233.78688049 C14.92667524 235.09032066 13.60348389 236.39064616 12.27653503 237.68711853 C8.69297366 241.21284924 5.34868572 244.83565566 2.15705872 248.72157288 C1.77522934 249.14345383 1.39339996 249.56533478 1 250 C0.67 250 0.34 250 0 250 C0 167.5 0 85 0 0 Z "
     fill="#0B396B"
     transform="translate(156,445)"
     id="path3" />
  <path
     d="M0 0 C4.95 0 9.9 0 15 0 C15 11.55 15 23.1 15 35 C15.66 35 16.32 35 17 35 C17.20625 34.4225 17.4125 33.845 17.625 33.25 C20.01964374 29.33149206 23.72751322 27.42416226 28 26 C35.6992561 25.35751762 42.66072605 25.15143418 49 30 C54.41604061 35.29568415 57.70835842 42.59821035 58.12025452 50.22735596 C58.11803391 51.03565857 58.11581329 51.84396118 58.11352539 52.67675781 C58.11344986 53.59741028 58.11337433 54.51806274 58.11329651 55.46661377 C58.10813522 56.45216248 58.10297394 57.43771118 58.09765625 58.453125 C58.0962413 59.46848328 58.09482635 60.48384155 58.09336853 61.52996826 C58.08777516 64.77000892 58.07522385 68.00998025 58.0625 71.25 C58.05748414 73.44791567 58.05292139 75.64583242 58.04882812 77.84375 C58.0378079 83.22919334 58.02054778 88.61458492 58 94 C52.39 94 46.78 94 41 94 C40.99589111 92.60241455 40.99178223 91.2048291 40.98754883 89.76489258 C40.96575948 84.57425168 40.91147089 79.38436902 40.84741211 74.1940918 C40.82423055 71.94872307 40.80983605 69.70324558 40.80444336 67.45776367 C40.7951553 64.22766327 40.75416577 60.99927391 40.70703125 57.76953125 C40.7109639 56.76727005 40.71489655 55.76500885 40.71894836 54.7323761 C40.61970609 49.98022033 40.57221726 47.7357574 37.58081055 43.8894043 C33.46443524 40.87581726 31.13369559 40.65775363 26 41 C22.67242353 42.21584525 20.63244618 43.24119641 18.36010742 45.9675293 C16.3742622 50.39513358 16.52029887 54.5292622 16.48828125 59.33203125 C16.47033005 60.32377853 16.45237885 61.31552582 16.43388367 62.33732605 C16.37983032 65.49567451 16.34590048 68.65387225 16.3125 71.8125 C16.27932258 73.95770324 16.24483253 76.10288661 16.20898438 78.24804688 C16.12410646 83.4985891 16.05727118 88.74908701 16 94 C10.72 94 5.44 94 0 94 C0 62.98 0 31.96 0 0 Z "
     fill="#0B3A6C"
     transform="translate(568,420)"
     id="path4" />
  <path
     d="M0 0 C26.22466216 0 26.22466216 0 33.375 5.1875 C40.02048974 12.30766758 41.35975423 19.90133181 41.28125 29.41015625 C40.78337628 35.76496104 38.63750078 40.01776222 34.625 44.875 C23.92366534 53.5379852 14.51393738 51 0 51 C0 34.17 0 17.34 0 0 Z "
     fill="#0A3264"
     transform="translate(536,545)"
     id="path5" />
  <path
     d="M0 0 C0 5.28 0 10.56 0 16 C-1.52625 15.938125 -3.0525 15.87625 -4.625 15.8125 C-9.17479403 15.81893535 -12.15910093 16.37694697 -16 19 C-19.45027875 22.68822901 -20.09885453 26.28983841 -20.20532227 31.21777344 C-20.22526749 32.03832214 -20.24521271 32.85887085 -20.26576233 33.70428467 C-20.28247482 34.58046448 -20.29918732 35.45664429 -20.31640625 36.359375 C-20.33718735 37.26375305 -20.35796844 38.1681311 -20.37937927 39.09991455 C-20.4446594 41.98320055 -20.50365952 44.8665761 -20.5625 47.75 C-20.60570571 49.70704044 -20.64932065 51.66407188 -20.69335938 53.62109375 C-20.80031872 58.4139712 -20.90164673 63.20693854 -21 68 C-25.95 68 -30.9 68 -36 68 C-36 45.89 -36 23.78 -36 1 C-31.05 1 -26.1 1 -21 1 C-20.67 3.64 -20.34 6.28 -20 9 C-19.319375 8.071875 -18.63875 7.14375 -17.9375 6.1875 C-12.82499777 0.11281336 -7.81816536 0 0 0 Z "
     fill="#093263"
     transform="translate(677,446)"
     id="path6" />
  <path
     d="M0 0 C4.59960955 3.28543539 8.20796622 7.33568615 9.625 12.875 C10.43926676 19.38913408 9.46147506 24.48985611 5.625 29.875 C1.22718112 34.50247 -2.74634254 36.03973099 -9.0625 36.25 C-15.09700387 36.18432825 -18.96324274 35.0322328 -23.375 30.875 C-27.56328136 25.74435533 -28.00413423 21.37677512 -27.7578125 14.81640625 C-26.97833237 8.82713542 -25.0277052 5.19041842 -20.3125 1.4375 C-13.90535479 -1.97055596 -6.87991375 -2.29330458 0 0 Z "
     fill="#092C5E"
     transform="translate(609.375,561.125)"
     id="path7" />
  <path
     d="M0 0 C3.0625 2 3.0625 2 5 4 C5.5775 3.71125 6.155 3.4225 6.75 3.125 C7.86375 2.568125 7.86375 2.568125 9 2 C9.61617187 1.65453125 10.23234375 1.3090625 10.8671875 0.953125 C14.51906971 -0.67885166 18.08332304 -0.54982813 22 0 C25.43724093 1.68737282 27.39403742 2.81500938 29.14794922 6.24487305 C30.13379983 9.43264501 30.22692168 12.05976244 30.1953125 15.39453125 C30.18886719 16.59658203 30.18242188 17.79863281 30.17578125 19.03710938 C30.15902344 20.28298828 30.14226563 21.52886719 30.125 22.8125 C30.11597656 24.07771484 30.10695313 25.34292969 30.09765625 26.64648438 C30.07412394 29.76451564 30.04124545 32.88216097 30 36 C27.03 36 24.06 36 21 36 C20.970271 34.87972412 20.970271 34.87972412 20.93994141 33.73681641 C20.84491789 30.36584395 20.73514741 26.99551071 20.625 23.625 C20.5940625 22.449375 20.563125 21.27375 20.53125 20.0625 C20.47324219 18.38027344 20.47324219 18.38027344 20.4140625 16.6640625 C20.3826416 15.62717285 20.3512207 14.5902832 20.31884766 13.52197266 C20.24045528 10.83190165 20.24045528 10.83190165 18 9 C13.80338618 8.51676783 13.80338618 8.51676783 10.1875 10.375 C8.02516324 13.33398714 7.82923326 15.38763027 7.68359375 19.0078125 C7.64169922 19.99394531 7.59980469 20.98007812 7.55664062 21.99609375 C7.51732422 23.02863281 7.47800781 24.06117188 7.4375 25.125 C7.39431641 26.16527344 7.35113281 27.20554687 7.30664062 28.27734375 C7.2003712 30.85142528 7.09833417 33.42560508 7 36 C4.36 36 1.72 36 -1 36 C-1.01981934 35.25314941 -1.03963867 34.50629883 -1.06005859 33.73681641 C-1.15508211 30.36584395 -1.26485259 26.99551071 -1.375 23.625 C-1.4059375 22.449375 -1.436875 21.27375 -1.46875 20.0625 C-1.50742187 18.94101562 -1.54609375 17.81953125 -1.5859375 16.6640625 C-1.63306885 15.10872803 -1.63306885 15.10872803 -1.68115234 13.52197266 C-1.75954472 10.83190165 -1.75954472 10.83190165 -4 9 C-7.5 8.66666667 -7.5 8.66666667 -11 9 C-13.63991268 11.63991268 -13.30240797 12.97946296 -13.4140625 16.6640625 C-13.47207031 18.34628906 -13.47207031 18.34628906 -13.53125 20.0625 C-13.57765625 21.8259375 -13.57765625 21.8259375 -13.625 23.625 C-13.68300781 25.40003906 -13.68300781 25.40003906 -13.7421875 27.2109375 C-13.83668845 30.14046691 -13.92224558 33.06998597 -14 36 C-16.97 36 -19.94 36 -23 36 C-23 24.45 -23 12.9 -23 1 C-20.36 1 -17.72 1 -15 1 C-14.67 1.99 -14.34 2.98 -14 4 C-13.360625 3.34 -12.72125 2.68 -12.0625 2 C-7.99374173 -0.65714826 -4.7444191 -0.89225965 0 0 Z "
     fill="#0C3161"
     transform="translate(665,560)"
     id="path8" />
  <path
     d="M0 0 C5.28 0 10.56 0 16 0 C16 22.11 16 44.22 16 67 C10.72 67 5.44 67 0 67 C0 44.89 0 22.78 0 0 Z "
     fill="#0A3A6C"
     transform="translate(536,447)"
     id="path9" />
  <path
     d="M0 0 C3.71241 3.44077024 6.93672399 7.21234789 7.5625 12.375 C7.5625 14.685 7.5625 16.995 7.5625 19.375 C-1.0175 19.375 -9.5975 19.375 -18.4375 19.375 C-15.45445036 26.0976499 -15.45445036 26.0976499 -12.4375 27.375 C-6.7055713 27.75086418 -4.35506745 27.38018011 0.5625 24.375 C2.75 25.125 2.75 25.125 4.5625 26.375 C5.2225 26.705 5.8825 27.035 6.5625 27.375 C5.38844277 31.02762249 3.17432913 32.84114866 -0.1796875 34.609375 C-5.42844542 36.38923063 -11.34884358 36.35675151 -16.625 34.6796875 C-21.84481739 32.00228116 -24.62413529 27.81509414 -26.4375 22.375 C-27.14206369 15.22541105 -26.76291922 9.29105726 -22.4375 3.375 C-16.22922748 -2.53042995 -7.76843976 -3.67235334 0 0 Z "
     fill="#092D5E"
     transform="translate(727.4375,561.625)"
     id="path10" />
  <path
     d="M0 0 C4.42484878 2.21242439 7.19476657 4.94799616 10 9 C11 12 11 12 11 21 C2.75 21 -5.5 21 -14 21 C-11.66151858 26.91731018 -11.66151858 26.91731018 -8 29 C-2.24706062 29.46394672 0.07410163 29.01027123 5 26 C7.3125 26.8125 7.3125 26.8125 9 28 C9 29.32 9 30.64 9 32 C3.83643576 36.88445266 -0.43629646 37.30106988 -7.27734375 37.2109375 C-12.43767211 36.81114162 -15.49023393 34.78343049 -18.8125 31 C-23.20143029 24.9808956 -22.59588 18.19194055 -22 11 C-19.88869839 6.46461135 -17.09447668 3.8346377 -13 1 C-8.64950335 -0.45016555 -4.54665815 -0.51070107 0 0 Z "
     fill="#052659"
     transform="translate(896,560)"
     id="path11" />
  <path
     d="M0 0 C2.64 0 5.28 0 8 0 C8 6.6 8 13.2 8 20 C8.66 20 9.32 20 10 20 C10.28875 19.360625 10.5775 18.72125 10.875 18.0625 C12 16 12 16 14 15 C19.03671207 14.44741109 22.92140903 14.46070451 27.5 16.75 C30.81082945 19.7297465 31.89126849 21.55164946 32.22705078 26.02441406 C32.21657715 27.17651367 32.20610352 28.32861328 32.1953125 29.515625 C32.18886719 30.76601563 32.18242188 32.01640625 32.17578125 33.3046875 C32.15902344 34.60664062 32.14226563 35.90859375 32.125 37.25 C32.11597656 38.56742188 32.10695313 39.88484375 32.09765625 41.2421875 C32.07408533 44.49497462 32.04118022 47.74739589 32 51 C29.36 51 26.72 51 24 51 C23.97494385 50.31897217 23.9498877 49.63794434 23.92407227 48.9362793 C23.80809048 45.85316245 23.68537384 42.77034954 23.5625 39.6875 C23.52318359 38.61564453 23.48386719 37.54378906 23.44335938 36.43945312 C23.40146484 35.41142578 23.35957031 34.38339844 23.31640625 33.32421875 C23.27974854 32.37635498 23.24309082 31.42849121 23.20532227 30.4519043 C23.08569813 27.863829 23.08569813 27.863829 22 25 C18.95016004 23.47508002 16.3576631 23.76437452 13 24 C11.20007364 25.10389772 11.20007364 25.10389772 10 27 C9.49520343 29.6068023 9.49520343 29.6068023 9.48828125 32.54296875 C9.45283203 33.61611328 9.41738281 34.68925781 9.38085938 35.79492188 C9.34702148 37.47424805 9.34702148 37.47424805 9.3125 39.1875 C9.27833984 40.31865234 9.24417969 41.44980469 9.20898438 42.61523438 C9.12643686 45.4100574 9.05730818 48.20456398 9 51 C6.03 51 3.06 51 0 51 C0 34.17 0 17.34 0 0 Z "
     fill="#092E5E"
     transform="translate(835,545)"
     id="path12" />
  <path
     d="M0 0 C14.2 0 14.2 0 19 4 C22.41421475 8.51491682 23.66850471 13.13571634 23.38671875 18.76171875 C22.48302825 23.99216981 20.25435949 27.80682878 16.4375 31.4375 C10.62953611 35.16055377 8.0563763 34 0 34 C0 22.78 0 11.56 0 0 Z "
     fill="#FBFAFA"
     transform="translate(545,554)"
     id="path13" />
  <path
     d="M0 0 C2.01709742 1.76496024 3.53275705 3.51052392 5 5.75 C3.02 7.07 1.04 8.39 -1 9.75 C-1.350625 9.255 -1.70125 8.76 -2.0625 8.25 C-4.97290987 5.99677946 -7.42966966 6.49033961 -11 6.75 C-11.99 7.245 -11.99 7.245 -13 7.75 C-13 9.07 -13 10.39 -13 11.75 C-12.20335937 11.92015625 -11.40671875 12.0903125 -10.5859375 12.265625 C-4.61013341 13.63235392 0.26079204 14.77931225 5 18.75 C6.75471072 22.25942145 5.94883623 26.0379988 5 29.75 C2.43464804 32.99044458 0.913195 34.44560167 -3 35.75 C-4.95475009 35.8947963 -6.9151138 35.97067502 -8.875 36 C-10.41800781 36.03867187 -10.41800781 36.03867187 -11.9921875 36.078125 C-16.39613819 35.59769402 -19.01023928 33.9445388 -21.8125 30.5625 C-22.204375 29.964375 -22.59625 29.36625 -23 28.75 C-21.68 27.43 -20.36 26.11 -19 24.75 C-17 25.75 -15 26.75 -13 27.75 C-11.62657169 27.8189472 -10.24997898 27.83467708 -8.875 27.8125 C-7.59625 27.791875 -6.3175 27.77125 -5 27.75 C-4.67 26.1 -4.34 24.45 -4 22.75 C-5.04800781 22.43546875 -6.09601562 22.1209375 -7.17578125 21.796875 C-8.5549149 21.36530937 -9.93380891 20.93297737 -11.3125 20.5 C-12.00279297 20.29503906 -12.69308594 20.09007812 -13.40429688 19.87890625 C-16.42646833 18.91531535 -18.67521167 18.0702413 -20.953125 15.82421875 C-22.61537689 12.53072713 -22.64329129 9.30577491 -22 5.75 C-17.18541662 -2.1596727 -8.30379133 -3.45991305 0 0 Z "
     fill="#0B2F60"
     transform="translate(788,561.25)"
     id="path14" />
  <path
     d="M0 0 C2.81057656 1.98796878 4.06702468 3.73846739 5.5625 6.8125 C3.9125 8.1325 2.2625 9.4525 0.5625 10.8125 C-3.3125 8.9375 -3.3125 8.9375 -4.4375 7.8125 C-10.0422709 7.59923597 -10.0422709 7.59923597 -15.4375 8.8125 C-16.49693373 11.60499585 -16.59960038 14.34582493 -16.625 17.3125 C-16.64626953 18.44171875 -16.64626953 18.44171875 -16.66796875 19.59375 C-16.40750524 22.10126311 -15.76935516 23.68153174 -14.4375 25.8125 C-11.26337823 27.39956088 -7.90111333 27.09727127 -4.4375 26.8125 C-1.55535113 25.93035113 -1.55535113 25.93035113 0.5625 24.8125 C1.8825 26.1325 3.2025 27.4525 4.5625 28.8125 C3.56397198 31.70823124 2.60155844 32.78515909 0.0625 34.5625 C-5.65007612 36.60270576 -10.91979936 36.63559444 -16.6875 34.75 C-21.10604291 31.63693568 -24.71140999 27.99077004 -26.4375 22.8125 C-27.20926402 15.80336445 -26.40320764 9.75499768 -22.4375 3.8125 C-15.71618241 -1.67428987 -8.18636532 -2.82801711 0 0 Z "
     fill="#0A2E5F"
     transform="translate(824.4375,561.1875)"
     id="path15" />
  <path
     d="M0 0 C2.64 0 5.28 0 8 0 C8 3.3 8 6.6 8 10 C10.97 10 13.94 10 17 10 C17 11.98 17 13.96 17 16 C14.03 16 11.06 16 8 16 C8.13818532 19.47951523 8.28682601 22.95850495 8.4375 26.4375 C8.47681641 27.43072266 8.51613281 28.42394531 8.55664062 29.44726562 C8.61948242 30.86362305 8.61948242 30.86362305 8.68359375 32.30859375 C8.72025146 33.18314209 8.75690918 34.05769043 8.79467773 34.95874023 C8.78181066 36.9927402 8.78181066 36.9927402 10 38 C12.33297433 38.04092937 14.66705225 38.04241723 17 38 C17 40.31 17 42.62 17 45 C8.09811896 46.43467209 8.09811896 46.43467209 4 44.8125 C1.19540639 42.27083704 0.10871668 40.2283816 -0.22705078 36.43457031 C-0.21657715 35.49194336 -0.20610352 34.54931641 -0.1953125 33.578125 C-0.18886719 32.55332031 -0.18242188 31.52851562 -0.17578125 30.47265625 C-0.15902344 29.40917969 -0.14226563 28.34570312 -0.125 27.25 C-0.11597656 26.17105469 -0.10695313 25.09210937 -0.09765625 23.98046875 C-0.07411305 21.32008722 -0.04122799 18.66015664 0 16 C-1.32 16 -2.64 16 -4 16 C-4 14.02 -4 12.04 -4 10 C-2.68 10 -1.36 10 0 10 C0 6.7 0 3.4 0 0 Z "
     fill="#092D5C"
     transform="translate(744,551)"
     id="path16" />
  <path
     d="M0 0 C2.64 0 5.28 0 8 0 C8 16.83 8 33.66 8 51 C5.36 51 2.72 51 0 51 C0 34.17 0 17.34 0 0 Z "
     fill="#06295B"
     transform="translate(625,545)"
     id="path17" />
  <path
     d="M0 0 C0 2.97 0 5.94 0 9 C-3.02734375 9.24414062 -3.02734375 9.24414062 -6.0546875 9.48828125 C-8.39519216 9.87393036 -8.39519216 9.87393036 -10 13 C-10.36696181 15.51502177 -10.36696181 15.51502177 -10.4140625 18.32421875 C-10.47207031 19.86625977 -10.47207031 19.86625977 -10.53125 21.43945312 C-10.5621875 22.51130859 -10.593125 23.58316406 -10.625 24.6875 C-10.68300781 26.31268555 -10.68300781 26.31268555 -10.7421875 27.97070312 C-10.83650509 30.64696467 -10.92210005 33.32321843 -11 36 C-13.97 36 -16.94 36 -20 36 C-20 24.45 -20 12.9 -20 1 C-17.36 1 -14.72 1 -12 1 C-11.67 2.32 -11.34 3.64 -11 5 C-10.38125 4.360625 -9.7625 3.72125 -9.125 3.0625 C-5.98002548 0.01002473 -4.27840282 -0.11258955 0 0 Z "
     fill="#0C3061"
     transform="translate(934,560)"
     id="path18" />
  <path
     d="M0 0 C0.33 1.32 0.66 2.64 1 4 C0.360625 4.165 -0.27875 4.33 -0.9375 4.5 C-3.16119241 5.781786 -3.16119241 5.781786 -3.48828125 7.9140625 C-3.7275978 9.93575155 -3.86893028 11.96841939 -4 14 C-3.34 14.33 -2.68 14.66 -2 15 C-2 15.66 -2 16.32 -2 17 C-2.66 17.33 -3.32 17.66 -4 18 C-4.65213292 20.02463255 -4.65213292 20.02463255 -5 22 C-4.34 22 -3.68 22 -3 22 C-2.29875 22.825 -1.5975 23.65 -0.875 24.5 C2.46563989 27.40490426 3.83108607 27.62230718 8.078125 27.3828125 C10.74479655 26.85164622 12.7000637 25.40551663 15 24 C17.3125 24.8125 17.3125 24.8125 19 26 C19 27.32 19 28.64 19 30 C13.83643576 34.88445266 9.56370354 35.30106988 2.72265625 35.2109375 C-2.43767211 34.81114162 -5.49023393 32.78343049 -8.8125 29 C-13.1748832 23.01730304 -12.74744955 16.15535972 -12 9 C-9.8125 5.875 -9.8125 5.875 -7 4 C-6.113125 3.236875 -5.22625 2.47375 -4.3125 1.6875 C-2 0 -2 0 0 0 Z "
     fill="#093668"
     transform="translate(886,562)"
     id="path19" />
  <path
     d="M0 0 C2.90523636 0.72499569 4.66562814 2.15557682 6.34375 4.62890625 C7.91559835 8.30658014 8.01307984 11.65583313 7.16015625 15.5390625 C5.80839727 18.39740747 4.68395692 19.39114704 2.16015625 21.5390625 C-2.20865203 22.9688543 -4.0122372 22.94505817 -8.15234375 20.9140625 C-11.02913372 18.37178299 -12.07715756 17.26775053 -12.83984375 13.5390625 C-12.98430401 9.09690941 -12.32565095 6.26777331 -9.83984375 2.5390625 C-6.31950452 0.19216968 -4.17024357 -0.26455635 0 0 Z "
     fill="#F7F8F8"
     transform="translate(602.83984375,567.4609375)"
     id="path20" />
  <path
     d="M0 0 C2.87029869 1.79393668 4.49131638 2.98263276 6 6 C6.41204834 10.63554388 5.87454146 13.30416098 3 17 C-0.21522137 19.32826375 -3.10830425 19.39711181 -7 19 C-9.80915461 17.72311154 -11.50106764 16.68900183 -13.3125 14.1875 C-14.60725275 10.06783216 -14.52656245 7.07705956 -12.625 3.1875 C-9.45315519 -1.08229109 -4.94165724 -0.64011104 0 0 Z "
     fill="#0C3466"
     transform="translate(548,420)"
     id="path21" />
  <path
     d="M0 0 C4.39061669 2.19530834 8.08849374 4.96177073 10.125 9.515625 C11.21664974 13.10547318 12 16.2367043 12 20 C3.75 20 -4.5 20 -13 20 C-13 19.67 -13 19.34 -13 19 C-11.35 19 -9.7 19 -8 19 C-8 18.34 -8 17.68 -8 17 C-3.38 16.67 1.24 16.34 6 16 C5.67 15.01 5.34 14.02 5 13 C5 13.66 5 14.32 5 15 C-0.61 15 -6.22 15 -12 15 C-11 10 -11 10 -9.3125 8.25 C-6.5501694 6.75684832 -4.10313728 6.35262924 -1 6 C-1 4.68 -1 3.36 -1 2 C-0.67 1.34 -0.34 0.68 0 0 Z "
     fill="#0A386A"
     transform="translate(722,560)"
     id="path22" />
  <path
     d="M0 0 C5.28 0 10.56 0 16 0 C16 22.11 16 44.22 16 67 C10.72 67 5.44 67 0 67 C0 44.89 0 22.78 0 0 Z M1 2 C1 22.79 1 43.58 1 65 C5.29 65 9.58 65 14 65 C14 44.21 14 23.42 14 2 C9.71 2 5.42 2 1 2 Z "
     fill="#0E2150"
     transform="translate(536,447)"
     id="path23" />
  <path
     d="M0 0 C0.33 0 0.66 0 1 0 C1 30.03 1 60.06 1 91 C5.29 91 9.58 91 14 91 C13.97905273 89.79988281 13.95810547 88.59976563 13.93652344 87.36328125 C13.86376813 82.88309807 13.81807168 78.40296645 13.78027344 73.92236328 C13.76023859 71.98835448 13.73300271 70.05440565 13.69824219 68.12060547 C13.64936429 65.33025257 13.62694981 62.54070499 13.609375 59.75 C13.58872986 58.89446533 13.56808472 58.03893066 13.54681396 57.1574707 C13.54464603 51.27167748 14.73761259 46.93845745 18 42 C20.0625 39.9375 20.0625 39.9375 22 39 C23.485 39.495 23.485 39.495 25 40 C24.05125 40.5775 23.1025 41.155 22.125 41.75 C19.06656587 43.95207257 18.28590886 44.65361981 17 48 C16.67734163 50.21773267 16.67734163 50.21773267 16.68115234 52.58496094 C16.66128265 53.48559265 16.64141296 54.38622437 16.62094116 55.31414795 C16.60361435 56.75966034 16.60361435 56.75966034 16.5859375 58.234375 C16.56657135 59.22753723 16.5472052 60.22069946 16.5272522 61.24395752 C16.46752678 64.41255129 16.42109889 67.58118153 16.375 70.75 C16.33681377 72.89975533 16.29776166 75.04949546 16.2578125 77.19921875 C16.16183088 82.46602227 16.07777354 87.73289741 16 93 C10.72 93 5.44 93 0 93 C0 62.31 0 31.62 0 0 Z "
     fill="#011349"
     transform="translate(568,421)"
     id="path24" />
  <path
     d="M0 0 C1.65 0 3.3 0 5 0 C5 1.32 5 2.64 5 4 C6.32 4.33 7.64 4.66 9 5 C8.67 5.66 8.34 6.32 8 7 C7.84588894 9.0307477 7.75017547 11.06606421 7.68359375 13.1015625 C7.64169922 14.31328125 7.59980469 15.525 7.55664062 16.7734375 C7.51732422 18.04445313 7.47800781 19.31546875 7.4375 20.625 C7.37272461 22.543125 7.37272461 22.543125 7.30664062 24.5 C7.20030114 27.66655348 7.09827167 30.83318753 7 34 C4.69 33.67 2.38 33.34 0 33 C0 22.11 0 11.22 0 0 Z "
     fill="#144271"
     transform="translate(644,562)"
     id="path25" />
  <path
     d="M0 0 C0.495 0.33 0.99 0.66 1.5 1 C6.05898683 2.82359473 10.44440592 2.51853136 15 1 C15.66 0.67 16.32 0.34 17 0 C18.32 1.32 19.64 2.64 21 4 C20.00147198 6.89573124 19.03905844 7.97265909 16.5 9.75 C10.64116919 11.84243957 5.33148613 11.8743073 -0.5 9.6875 C-3 8 -3 8 -5 5 C-4.01 5 -3.02 5 -2 5 C-1.34 3.35 -0.68 1.7 0 0 Z "
     fill="#072A5C"
     transform="translate(808,586)"
     id="path26" />
  <path
     d="M0 0 C2 2 2 2 2.24050903 3.98684692 C2.2338472 5.20596268 2.2338472 5.20596268 2.22705078 6.44970703 C2.22689972 7.37051056 2.22674866 8.29131409 2.22659302 9.24002075 C2.21627045 10.23589203 2.20594788 11.23176331 2.1953125 12.2578125 C2.1924826 13.27600067 2.18965271 14.29418884 2.18673706 15.3432312 C2.1755177 18.603939 2.15040996 21.86437484 2.125 25.125 C2.11497247 27.33202729 2.10584623 29.53905888 2.09765625 31.74609375 C2.07557263 37.16416772 2.04103082 42.58203771 2 48 C-3.28 48 -8.56 48 -14 48 C-14 33.48 -14 18.96 -14 4 C-13.67 4 -13.34 4 -13 4 C-13 17.86 -13 31.72 -13 46 C-8.71 46 -4.42 46 0 46 C0 30.82 0 15.64 0 0 Z "
     fill="#142758"
     transform="translate(624,466)"
     id="path27" />
  <path
     d="M0 0 C3.92331434 0.22418939 4.96128088 0.95952092 7.75 3.875 C12.26197921 10.14163779 11.50328268 17.28829026 10.5 24.6875 C10.335 25.450625 10.17 26.21375 10 27 C9.01 27 8.02 27 7 27 C6.67 26.01 6.34 25.02 6 24 C5.34 23.67 4.68 23.34 4 23 C4.06960938 21.67935547 4.06960938 21.67935547 4.140625 20.33203125 C4.17671875 19.17058594 4.2128125 18.00914062 4.25 16.8125 C4.29640625 15.66394531 4.3428125 14.51539063 4.390625 13.33203125 C3.92549366 9.36446091 2.60702166 7.93289937 0 5 C-0.25 2.1875 -0.25 2.1875 0 0 Z "
     fill="#093A6C"
     transform="translate(606,563)"
     id="path28" />
  <path
     d="M0 0 C5.61 0 11.22 0 17 0 C17 0.66 17 1.32 17 2 C12.05 2 7.1 2 2 2 C2 17.51 2 33.02 2 49 C7.94 49.33 13.88 49.66 20 50 C20 50.33 20 50.66 20 51 C13.4 51 6.8 51 0 51 C0 34.17 0 17.34 0 0 Z "
     fill="#011645"
     transform="translate(536,545)"
     id="path29" />
  <path
     d="M0 0 C2 1 4 2 6 3 C7.70702735 3.06996014 9.41668003 3.08440154 11.125 3.0625 C12.03507813 3.05347656 12.94515625 3.04445313 13.8828125 3.03515625 C14.58148437 3.02355469 15.28015625 3.01195312 16 3 C15.67 3.66 15.34 4.32 15 5 C14.01 5 13.02 5 12 5 C12 5.66 12 6.32 12 7 C15.05847848 7.54372951 17.88772805 8 21 8 C17.20129518 10.63954122 14.61446412 11.41031478 10 11.375 C8.989375 11.38273438 7.97875 11.39046875 6.9375 11.3984375 C2.60610971 10.81093509 -0.04327898 9.1546633 -2.8125 5.8125 C-3.204375 5.214375 -3.59625 4.61625 -4 4 C-2.68 2.68 -1.36 1.36 0 0 Z "
     fill="#071B4A"
     transform="translate(769,586)"
     id="path30" />
  <path
     d="M0 0 C2.64 0 5.28 0 8 0 C8.33 0.99 8.66 1.98 9 3 C9.99 2.01 10.98 1.02 12 0 C12.99 0.33 13.98 0.66 15 1 C14.505 1.474375 14.01 1.94875 13.5 2.4375 C11.88457803 3.75923698 11.88457803 3.75923698 12 5 C14.31 5.33 16.62 5.66 19 6 C19 6.33 19 6.66 19 7 C17.906875 7.12375 16.81375 7.2475 15.6875 7.375 C11.92618198 7.75464801 11.92618198 7.75464801 9 10 C9.33 8.68 9.66 7.36 10 6 C9.01 5.67 8.02 5.34 7 5 C7 3.68 7 2.36 7 1 C5.35 1 3.7 1 2 1 C2 11.89 2 22.78 2 34 C3.65 34 5.3 34 7 34 C7 26.74 7 19.48 7 12 C7.33 12 7.66 12 8 12 C8 19.59 8 27.18 8 35 C5.36 35 2.72 35 0 35 C0 23.45 0 11.9 0 0 Z "
     fill="#001142"
     transform="translate(642,561)"
     id="path31" />
  <path
     d="M0 0 C0 1.32 0 2.64 0 4 C1.65 4.66 3.3 5.32 5 6 C5 6.33 5 6.66 5 7 C4.39671875 7.02578125 3.7934375 7.0515625 3.171875 7.078125 C-1.90277415 7.43514848 -1.90277415 7.43514848 -6.4375 9.5625 C-8.60669486 12.94644398 -9.21241925 16.06209624 -10 20 C-10.33 20 -10.66 20 -11 20 C-10.89300781 19.39671875 -10.78601563 18.7934375 -10.67578125 18.171875 C-9.79093221 13.1191966 -9.79093221 13.1191966 -11.4375 8.4375 C-11.953125 7.963125 -12.46875 7.48875 -13 7 C-14.32 8.65 -15.64 10.3 -17 12 C-16.58306691 7.1357806 -14.67251308 5.10123327 -11 2 C-6.92482959 -0.54698151 -4.64427205 -1.5025586 0 0 Z "
     fill="#092557"
     transform="translate(600,561)"
     id="path32" />
  <path
     d="M0 0 C2 1 4 2 6 3 C4.81988073 6.67148217 2.56307202 8.50206448 -0.7890625 10.3125 C-5.50187794 11.77796911 -11.58116715 11.20941642 -16 9 C-16 7.35 -16 5.7 -16 4 C-15.26394531 4.04640625 -14.52789063 4.0928125 -13.76953125 4.140625 C-7.46875678 4.46222622 -7.46875678 4.46222622 -1.8125 2 C-1.214375 1.34 -0.61625 0.68 0 0 Z "
     fill="#0C2F60"
     transform="translate(728,586)"
     id="path33" />
  <path
     d="M0 0 C2.9375 2.3125 2.9375 2.3125 5 5 C5 5.99 5 6.98 5 8 C-0.61 8 -6.22 8 -12 8 C-11 3 -11 3 -9.375 1.1875 C-5.98279278 -0.50860361 -3.74493155 -0.52560443 0 0 Z "
     fill="#F7F9F9"
     transform="translate(894,567)"
     id="path34" />
  <path
     d="M0 0 C2.4375 2.125 2.4375 2.125 3.4375 4.125 C1.625 4.75 1.625 4.75 -0.5625 5.125 C-1.5525 4.465 -2.5425 3.805 -3.5625 3.125 C-3.2325 2.135 -2.9025 1.145 -2.5625 0.125 C-3.5525 0.785 -4.5425 1.445 -5.5625 2.125 C-3.9125 3.775 -2.2625 5.425 -0.5625 7.125 C-0.8925 7.785 -1.2225 8.445 -1.5625 9.125 C-2.036875 8.63 -2.51125 8.135 -3 7.625 C-6.76608351 5.42046331 -10.29709379 5.87891887 -14.5625 6.125 C-14.5625 3.125 -14.5625 3.125 -13.5625 0.125 C-18.31158547 2.93127778 -20.75622222 5.37591453 -23.5625 10.125 C-23.8925 9.135 -24.2225 8.145 -24.5625 7.125 C-22.51407974 3.66732821 -19.68618363 0.84290899 -16.3125 -1.3125 C-10.76417646 -2.44738436 -4.95018823 -3.20446967 0 0 Z "
     fill="#082251"
     transform="translate(899.5625,561.875)"
     id="path35" />
  <path
     d="M0 0 C3.97177365 2.47132583 4.84033405 3.36133621 6 8 C0.39 8 -5.22 8 -11 8 C-10 3 -10 3 -8.3125 1.1875 C-5.24756099 -0.3863876 -3.40910465 -0.48701495 0 0 Z "
     fill="#FAFAFA"
     transform="translate(721,567)"
     id="path36" />
  <path
     d="M0 0 C0.556875 0.7425 1.11375 1.485 1.6875 2.25 C4.97968802 6.16503441 7.89621446 9.0593388 13 10 C14.58211573 10.06548492 16.16670081 10.08578381 17.75 10.0625 C18.94882812 10.04896484 18.94882812 10.04896484 20.171875 10.03515625 C20.77515625 10.02355469 21.3784375 10.01195312 22 10 C22.33 8.68 22.66 7.36 23 6 C19.7 6 16.4 6 13 6 C13 5.67 13 5.34 13 5 C13.66386719 4.87882813 14.32773437 4.75765625 15.01171875 4.6328125 C19.53424459 3.77452292 23.79938524 2.96028689 28 1 C28.99 1.99 29.98 2.98 31 4 C29.81543033 7.68532787 27.57095976 9.45158929 24.1953125 11.23828125 C18.72722948 13.13556984 13.03790956 12.67930319 7.625 10.875 C4.33887351 8.52776679 2.33909917 6.30225765 0 3 C0 2.01 0 1.02 0 0 Z "
     fill="#081846"
     transform="translate(875,585)"
     id="path37" />
  <path
     d="M0 0 C0.4125 0.5775 0.825 1.155 1.25 1.75 C2.11625 2.86375 2.11625 2.86375 3 4 C3.53625 4.721875 4.0725 5.44375 4.625 6.1875 C8.12874957 8.86141415 11.69196338 8.81589587 16 9 C16 9.33 16 9.66 16 10 C14.37509046 10.02698189 12.75005367 10.04638757 11.125 10.0625 C10.22007812 10.07410156 9.31515625 10.08570313 8.3828125 10.09765625 C6 10 6 10 4 9 C4 10.65 4 12.3 4 14 C7.96 14.33 11.92 14.66 16 15 C16 15.33 16 15.66 16 16 C8.77431506 16.47038817 3.83750232 16.52704262 -2 12 C-4.5 9 -4.5 9 -6 6 C-5.75 3.625 -5.75 3.625 -5 2 C-4.34 4.31 -3.68 6.62 -3 9 C-2.01 8.67 -1.02 8.34 0 8 C0 5.36 0 2.72 0 0 Z "
     fill="#071C4D"
     transform="translate(708,581)"
     id="path38" />
  <path
     d="M0 0 C-2.59836136 1.36645701 -5.20265556 2.71830669 -7.8125 4.0625 C-8.91948242 4.64741211 -8.91948242 4.64741211 -10.04882812 5.24414062 C-10.76103516 5.60830078 -11.47324219 5.97246094 -12.20703125 6.34765625 C-12.8616333 6.68804932 -13.51623535 7.02844238 -14.19067383 7.37915039 C-16 8 -16 8 -19 7 C-14.78923049 1.90275269 -11.7764423 0.23837956 -5.26953125 -0.87109375 C-3 -1 -3 -1 0 0 Z "
     fill="#DB111B"
     transform="translate(175,688)"
     id="path39" />
  <path
     d="M0 0 C1.051875 0.4640625 1.051875 0.4640625 2.125 0.9375 C5.08936657 2.03302678 7.87698108 2.56422992 11 3 C10.34 4.32 9.68 5.64 9 7 C2.6 7.36923077 2.6 7.36923077 -0.4375 5.5 C-0.953125 5.005 -1.46875 4.51 -2 4 C-1.34 2.68 -0.68 1.36 0 0 Z "
     fill="#09396B"
     transform="translate(769,588)"
     id="path40" />
  <path
     d="M0 0 C1.21816406 0.03480469 1.21816406 0.03480469 2.4609375 0.0703125 C3.68683594 0.09738281 3.68683594 0.09738281 4.9375 0.125 C5.87722656 0.15980469 5.87722656 0.15980469 6.8359375 0.1953125 C6.6503125 0.9790625 6.4646875 1.7628125 6.2734375 2.5703125 C5.57631484 5.16621025 5.57631484 5.16621025 6.8359375 7.1953125 C6.23265625 7.29328125 5.629375 7.39125 5.0078125 7.4921875 C0.13015468 8.40478154 -3.00229638 9.07126973 -6.1640625 13.1953125 C-5.78525172 10.44893433 -5.38573963 9.39482192 -3.2890625 7.5078125 C-1.1640625 6.1953125 -1.1640625 6.1953125 1.8359375 5.1953125 C2.1659375 4.2053125 2.4959375 3.2153125 2.8359375 2.1953125 C0.5259375 2.1953125 -1.7840625 2.1953125 -4.1640625 2.1953125 C-2.1640625 0.1953125 -2.1640625 0.1953125 0 0 Z "
     fill="#061A49"
     transform="translate(715.1640625,559.8046875)"
     id="path41" />
  <path
     d="M0 0 C2.13324818 2.13324818 2.53238345 3.1007774 3 6 C2 7 2 7 0.14233398 7.11352539 C-0.64842529 7.10828857 -1.43918457 7.10305176 -2.25390625 7.09765625 C-3.10791016 7.09443359 -3.96191406 7.09121094 -4.84179688 7.08789062 C-5.73962891 7.07951172 -6.63746094 7.07113281 -7.5625 7.0625 C-8.46419922 7.05798828 -9.36589844 7.05347656 -10.29492188 7.04882812 C-12.53001314 7.03700225 -14.76497437 7.0205222 -17 7 C-17 6.34 -17 5.68 -17 5 C-11.06 5 -5.12 5 1 5 C0.67 3.35 0.34 1.7 0 0 Z "
     fill="#021D52"
     transform="translate(726,570)"
     id="path42" />
  <path
     d="M0 0 C0.33 0.99 0.66 1.98 1 3 C1.66 3.33 2.32 3.66 3 4 C2.23816406 4.74443359 2.23816406 4.74443359 1.4609375 5.50390625 C-2.92843274 9.83573792 -7.05208718 14.26250461 -11 19 C-11 14.98872314 -9.01170601 13.06784607 -6.625 10.0625 C-2.87423591 5.30130563 -2.87423591 5.30130563 0 0 Z "
     fill="#EDEBED"
     transform="translate(212,631)"
     id="path43" />
  <path
     d="M0 0 C2.64 0.66 5.28 1.32 8 2 C8 2.66 8 3.32 8 4 C8.66 4.66 9.32 5.32 10 6 C2.25 6.125 2.25 6.125 0 5 C0 3.35 0 1.7 0 0 Z "
     fill="#083A6D"
     transform="translate(712,590)"
     id="path44" />
  <path
     d="M0 0 C0 3 0 3 -2.265625 5.55859375 C-3.25292513 6.52593498 -4.2480879 7.4853011 -5.25 8.4375 C-5.74113281 8.91509766 -6.23226562 9.39269531 -6.73828125 9.88476562 C-8.1543376 11.2611724 -9.57705622 12.63071472 -11 14 C-12.33664869 15.33000971 -13.67142004 16.66193018 -15 18 C-15 15 -15 15 -13.62304688 13.2824707 C-12.99462891 12.66976318 -12.36621094 12.05705566 -11.71875 11.42578125 C-11.04199219 10.75869141 -10.36523438 10.09160156 -9.66796875 9.40429688 C-8.95253906 8.71400391 -8.23710937 8.02371094 -7.5 7.3125 C-6.42685547 6.2596582 -6.42685547 6.2596582 -5.33203125 5.18554688 C-3.56120423 3.45013639 -1.78376544 1.7220927 0 0 Z "
     fill="#F51F27"
     transform="translate(182,668)"
     id="path45" />
  <path
     d="M0 0 C0 3.93235469 -1.54945341 5.02964049 -4 8 C-4.33 8.99 -4.66 9.98 -5 11 C-7.3125 12.0625 -7.3125 12.0625 -10 13 C-11.33954963 13.6540864 -12.67409813 14.31867303 -14 15 C-9.59156563 9.70987876 -4.92440206 4.81191572 0 0 Z "
     fill="#F32129"
     transform="translate(197,653)"
     id="path46" />
  <path
     d="M0 0 C0.33 0.66 0.66 1.32 1 2 C1.99 2 2.98 2 4 2 C4 4.31 4 6.62 4 9 C3.01 9.33 2.02 9.66 1 10 C1 9.34 1 8.68 1 8 C0.01 8.33 -0.98 8.66 -2 9 C-1.125 1.125 -1.125 1.125 0 0 Z "
     fill="#0E3C6D"
     transform="translate(803,564)"
     id="path47" />
  <path
     d="M0 0 C0.8971875 0.309375 0.8971875 0.309375 1.8125 0.625 C1.8125 1.945 1.8125 3.265 1.8125 4.625 C-2.6425 5.12 -2.6425 5.12 -7.1875 5.625 C-4.02960526 -0.69078947 -4.02960526 -0.69078947 0 0 Z "
     fill="#083A6E"
     transform="translate(930.1875,562.375)"
     id="path48" />
  <path
     d="M0 0 C0.66 0.33 1.32 0.66 2 1 C1.67 1.99 1.34 2.98 1 4 C3.31 4.66 5.62 5.32 8 6 C8 6.33 8 6.66 8 7 C5.36 7 2.72 7 0 7 C0 6.34 0 5.68 0 5 C-1.32 5 -2.64 5 -4 5 C-2.25 1.125 -2.25 1.125 0 0 Z "
     fill="#051E51"
     transform="translate(676,561)"
     id="path49" />
  <path
     d="M0 0 C0.99 0.33 1.98 0.66 3 1 C2.2575 1.7115625 2.2575 1.7115625 1.5 2.4375 C-0.11542197 3.75923698 -0.11542197 3.75923698 0 5 C2.31 5.33 4.62 5.66 7 6 C7 6.33 7 6.66 7 7 C5.906875 7.12375 4.81375 7.2475 3.6875 7.375 C-0.07381802 7.75464801 -0.07381802 7.75464801 -3 10 C-2.67 8.68 -2.34 7.36 -2 6 C-2.99 5.67 -3.98 5.34 -5 5 C-4.67 4.01 -4.34 3.02 -4 2 C-3.34 2 -2.68 2 -2 2 C-1.34 1.34 -0.68 0.68 0 0 Z "
     fill="#031747"
     transform="translate(654,561)"
     id="path50" />
  <path
     d="M0 0 C1.32 0 2.64 0 4 0 C4 0.99 4 1.98 4 3 C4.99 3 5.98 3 7 3 C7.66 3.33 8.32 3.66 9 4 C8.34 5.65 7.68 7.3 7 9 C5.82460004 8.07347299 4.65989423 7.13336613 3.5 6.1875 C2.52546875 5.40439453 2.52546875 5.40439453 1.53125 4.60546875 C0 3 0 3 0 0 Z "
     fill="#093C6E"
     transform="translate(893,562)"
     id="path51" />
  <path
     d="M0 0 C0 2.97 0 5.94 0 9 C-0.66 8.34 -1.32 7.68 -2 7 C-2 5.68 -2 4.36 -2 3 C-4.31 3.33 -6.62 3.66 -9 4 C-9 3.34 -9 2.68 -9 2 C-5.86501708 0.14223235 -3.62528568 -0.20140476 0 0 Z "
     fill="#081A44"
     transform="translate(934,560)"
     id="path52" />
  <path
     d="M0 0 C1.65 0.33 3.3 0.66 5 1 C5 2.32 5 3.64 5 5 C5.66 5.33 6.32 5.66 7 6 C4.69 6.33 2.38 6.66 0 7 C-1.125 2.25 -1.125 2.25 0 0 Z "
     fill="#0B386B"
     transform="translate(595,560)"
     id="path53" />
  <path
     d="M0 0 C0.33 1.65 0.66 3.3 1 5 C-0.8125 5.6875 -0.8125 5.6875 -3 6 C-4.75 4.5625 -4.75 4.5625 -6 3 C-2.25 0 -2.25 0 0 0 Z "
     fill="#092C5E"
     transform="translate(903,586)"
     id="path54" />
  <path
     d="M0 0 C0.99 0.33 1.98 0.66 3 1 C1.375 6.75 1.375 6.75 -2 9 C-2.125 6.125 -2.125 6.125 -2 3 C-1.34 2.34 -0.68 1.68 0 1 C0 0.67 0 0.34 0 0 Z "
     fill="#163766"
     transform="translate(160,684)"
     id="path55" />
  <path
     d="M0 0 C0.66 0.33 1.32 0.66 2 1 C1.75 2.875 1.75 2.875 1 5 C-0.875 6.3125 -0.875 6.3125 -3 7 C-3.99 6.67 -4.98 6.34 -6 6 C-4.02 4.02 -2.04 2.04 0 0 Z "
     fill="#E8141E"
     transform="translate(162,689)"
     id="path56" />
  <path
     d="M0 0 C3.65316671 1.24976756 4.78065836 1.67098753 7 5 C3 5 3 5 0 4 C0 2.68 0 1.36 0 0 Z "
     fill="#DC121D"
     transform="translate(408,338)"
     id="path57" />
  <path
     d="M0 0 C0.33 0 0.66 0 1 0 C1 1.98 1 3.96 1 6 C-1.97 5.67 -4.94 5.34 -8 5 C-8 4.67 -8 4.34 -8 4 C-5.69 4 -3.38 4 -1 4 C-0.67 2.68 -0.34 1.36 0 0 Z "
     fill="#233863"
     transform="translate(760,561)"
     id="path58" />
</svg>
